<svg xmlns="http://www.w3.org/2000/svg" xmlns:xlink="http://www.w3.org/1999/xlink" id="Calque_1" x="0px" y="0px" viewBox="0 0 420.7 187.7" style="enable-background:new 0 0 420.7 187.7;" xml:space="preserve">
<style type="text/css">
	.st0{fill:#0075BE;}
</style>
<g>
	<path class="st0" d="M225.1,64.7c-8.5-14.9-24.6-25-43-25c-9.3,0-18.2,2.7-25.8,7.2v-3.5c0-2.5-2-4.4-4.4-4.4h-14.6   c-2.5,0-4.4,2-4.4,4.4v134.5c0,2.9,2.4,5.3,5.3,5.3l14.1,0c2.9,0,5.3-2.4,5.3-5.3v-46.3c7.2,4.2,15.6,6.8,24.5,6.8   c18.5,0,34.7-10.3,43.1-25.4c-3.1-7.5-4.8-15.7-4.8-24.3C220.5,80.2,222.1,72.1,225.1,64.7z M181.2,114.4   c-14,0-25.3-11.3-25.3-25.5c0-14,11.3-25.3,25.3-25.3c14.2,0,25.5,11.3,25.5,25.3C206.7,103.1,195.4,114.4,181.2,114.4z"></path>
	<path class="st0" d="M311.7,53.3C302.8,44.2,291,39,277.9,39c-26.1,0-47.6,22-47.6,49.2c0,13.1,4,24.7,11.7,33.6   c8.4,9.5,20.6,15.8,34.8,16.1c1.3,0,2.9,0,4.8,0c5.7,0,17.4-2.6,27.6-9.1c2.5-1.6,3.2-5,1.5-7.5l-6.8-10.4c-1.6-2.5-5-3.3-7.5-1.6   c-4.2,2.8-8.5,4.7-17.5,4.7c-12,0-21.9-8.4-24.2-16.9h57.3c0.6,0,1.2-0.1,1.7-0.2c-0.4-2.8-0.6-5.6-0.6-8.5c0-9.2,2-17.9,5.4-25.8   C316.6,59.1,314.2,55.9,311.7,53.3z M255.4,78.2c4-10.8,13.6-16.7,22.9-16.8c9.3-0.1,19.4,5.8,22.6,16.8H255.4z"></path>
	<path class="st0" d="M417.4,85.2c0.2-11.7-5.6-23.9-13.1-31.5c-8.9-9.1-20.7-14.3-33.8-14.3c-17.1,0-32.2,9.4-40.6,23.6   c-4.4,7.5-7.1,16.2-7.1,25.7c0,9.9,2.3,19,6.7,26.6c1.4,2.5,3.1,4.8,4.9,6.9c8.4,9.5,20.6,15.8,34.8,16.1v0c0,0,0,0,0,0   c1.3,0,2.9,0,4.8,0c0,0,0,0,0,0v0c5.7,0,17.4-2.6,27.6-9.1c2.5-1.6,3.2-5,1.5-7.5l-6.8-10.4c-1.6-2.5-5-3.3-7.5-1.6   c-4.2,2.8-8.5,4.7-17.5,4.7c-12,0-21.9-8.4-24.2-16.9h57.3l7.3,0c3.1,0,5.7-2.6,5.6-5.7L417.4,85.2z M371,61.7   c9.3-0.1,19.4,5.8,22.6,16.8h-45.5C352.1,67.7,361.6,61.8,371,61.7z"></path>
	<path class="st0" d="M69.5,60.2H44.1c-0.9,0-1.7,0.8-1.7,1.7v36.3c0,1.7,0.2,3.3,0.5,4.7c1.6,6.4,8.3,10.4,16.3,10.7   c4.3,0.2,8.5-0.2,12.1-0.9c2.9-0.5,5.9,0.8,7.3,3.4c2.1,3.9,4.3,7.8,6.3,11.3c1.5,2.7,0.5,5.7-2.4,6.8c-7.7,3-16.4,3.9-20.7,3.9   c-1.7,0-3,0-3.8-0.2c-15.4-0.7-39.6-11.9-40-34.5l0,0V61.9c0-0.9-0.8-1.7-1.7-1.7h-5.3c-3.8,0-6.8-3.1-6.8-6.8v-7.6   c0-3.8,3.1-6.8,6.8-6.8h5.3c0.9,0,1.7-0.8,1.7-1.7V13c0-3.8,3.1-6.8,6.8-6.8h10.8c3.8,0,6.8,3.1,6.8,6.8v24.2   c0,0.9,0.8,1.7,1.7,1.7l17.2,0h8.1c3.8,0,6.8,3,6.8,6.8l0,7.6C76.3,57.1,73.3,60.2,69.5,60.2z"></path>
	<path class="st0" d="M122.5,116.4c0-2-1.2-3.7-3-4.6c-3.7-1.8-6.4-4.8-7.4-8.6c-0.2-1.4-0.4-3-0.5-4.7V43.9c0-2.7-2.2-4.9-4.9-4.9   H92.2c-2.7,0-4.9,2.2-4.9,4.9v59.9l0,0c0.3,18.4,16.2,29.2,30.3,33.1c2.5,0.7,4.9-1.1,4.9-3.7L122.5,116.4z"></path>
	<path class="st0" d="M106.7,29.7H92.4c-2.7,0-4.9-2.2-4.9-4.9V10.5c0-2.7,2.2-4.9,4.9-4.9h14.3c2.7,0,4.9,2.2,4.9,4.9v14.2   C111.6,27.5,109.4,29.7,106.7,29.7z"></path>
</g>
</svg>
